<?xml version="1.0" encoding="UTF-8" standalone="no"?>
<!DOCTYPE svg PUBLIC "-//W3C//DTD SVG 1.1//EN" "http://www.w3.org/Graphics/SVG/1.1/DTD/svg11.dtd">
<svg width="100%" height="100%" viewBox="0 0 1115 1266" version="1.1" xmlns="http://www.w3.org/2000/svg" xmlns:xlink="http://www.w3.org/1999/xlink" xml:space="preserve" xmlns:serif="http://www.serif.com/" style="fill-rule:evenodd;clip-rule:evenodd;stroke-linejoin:round;stroke-miterlimit:2;">
    <g transform="matrix(0.913488,0,0,0.70414,421.564,-698.837)">
        <path d="M152.548,1090.11C152.548,1090.11 -386.227,1398.44 -386.227,1638.74C-386.227,2080.84 -199.698,2692.16 152.548,2692.16C504.795,2692.16 683.007,2104.91 683.007,1662.81C683.007,1422.5 152.548,1090.11 152.548,1090.11Z" style="fill:rgb(235,235,235);"/>
        <clipPath id="_clip1">
            <path d="M152.548,1090.11C152.548,1090.11 -386.227,1398.44 -386.227,1638.74C-386.227,2080.84 -199.698,2692.16 152.548,2692.16C504.795,2692.16 683.007,2104.91 683.007,1662.81C683.007,1422.5 152.548,1090.11 152.548,1090.11Z"/>
        </clipPath>
        <g clip-path="url(#_clip1)">
            <g transform="matrix(3.27024,0,0,4.79664,-2000.94,-1109.75)">
                <path d="M756.569,529.692C744.054,519.524 731.539,511.996 719.025,507.107C706.51,502.218 694.386,499.774 682.654,499.774C667.792,499.774 655.669,503.294 646.283,510.333C636.897,517.373 632.204,526.564 632.204,537.905C632.204,545.727 634.55,552.18 639.243,557.264C643.936,562.348 650.096,566.748 657.722,570.463C665.348,574.178 673.952,577.405 683.534,580.142C693.115,582.88 702.599,585.813 711.985,588.942C749.529,601.457 777.003,618.175 794.407,639.099C811.81,660.022 820.512,687.3 820.512,720.933C820.512,743.616 816.698,764.148 809.072,782.529C801.446,800.91 790.3,816.652 775.634,829.753C760.969,842.854 742.979,853.023 721.665,860.258C700.35,867.493 676.201,871.11 649.216,871.11C593.291,871.11 541.472,854.489 493.759,821.247L543.036,728.559C560.244,743.812 577.256,755.153 594.073,762.584C610.889,770.015 627.511,773.73 643.936,773.73C662.708,773.73 676.69,769.428 685.88,760.824C695.071,752.22 699.666,742.443 699.666,731.493C699.666,724.844 698.493,719.076 696.146,714.187C693.8,709.298 689.889,704.801 684.414,700.695C678.938,696.588 671.801,692.775 663.002,689.255C654.202,685.736 643.545,681.825 631.03,677.523C616.169,672.83 601.601,667.648 587.326,661.977C573.052,656.306 560.342,648.778 549.196,639.392C538.05,630.006 529.055,618.175 522.211,603.901C515.367,589.626 511.945,571.538 511.945,549.638C511.945,527.737 515.562,507.889 522.797,490.095C530.032,472.3 540.201,457.048 553.302,444.338C566.403,431.627 582.438,421.752 601.406,414.713C620.373,407.673 641.59,404.154 665.055,404.154C686.956,404.154 709.834,407.185 733.69,413.246C757.547,419.308 780.425,428.205 802.326,439.938L756.569,529.692Z" style="fill:rgb(0,184,104);fill-rule:nonzero;stroke:rgb(67,134,83);stroke-width:8.49px;"/>
            </g>
        </g>
        <path d="M152.548,1090.11C152.548,1090.11 -386.227,1398.44 -386.227,1638.74C-386.227,2080.84 -199.698,2692.16 152.548,2692.16C504.795,2692.16 683.007,2104.91 683.007,1662.81C683.007,1422.5 152.548,1090.11 152.548,1090.11Z" style="fill:none;stroke:rgb(0,184,103);stroke-width:168.6px;stroke-linecap:round;stroke-miterlimit:1.5;"/>
    </g>
</svg>
